<svg data-v-0dd9719b="" version="1.0" xmlns="http://www.w3.org/2000/svg" xmlns:xlink="http://www.w3.org/1999/xlink" width="100%" height="100%" viewBox="0 0 340.000000 250.000000" preserveAspectRatio="xMidYMid meet" color-interpolation-filters="sRGB" style="margin: auto;"> <rect data-v-0dd9719b="" x="0" y="0" width="100%" height="100%" fill="#fff" fill-opacity="1" class="background"></rect> <rect data-v-0dd9719b="" x="0" y="0" width="100%" height="100%" fill="url(#watermark)" fill-opacity="1" class="watermarklayer"></rect> <g data-v-0dd9719b="" fill="#333" class="icon-text-wrapper icon-svg-group iconsvg" transform="translate(47.19999694824219,104.85170936584473)"><g class="iconsvg-imagesvg" transform="translate(0,0)"><g><rect fill="#333" fill-opacity="0" stroke-width="2" x="0" y="0" width="60" height="40.29658284977434" class="image-rect"></rect> <svg x="0" y="0" width="60" height="40.29658284977434" filtersec="colorsb2968900588" class="image-svg-svg primary" style="overflow: visible;"><svg xmlns="http://www.w3.org/2000/svg" viewBox="0 0 654.0999755859375 439.29998779296875"><path d="M514.58 439.28V165.73c-93.8 11.45-171.11 40.24-225.5 85 47.75-56.69 117.66-98.94 225.5-119.41v-9.72C155.1 166.49 110.65 424.36 106.85 439.28h407.73z" fill="#ed1c24"></path><path d="M456.41 97.19q28.26-8 58.17-14.05A889 889 0 0 1 654.1 66.92a1012.83 1012.83 0 0 0-139.52 4.26V0H75.44l-.76 157C43.91 182.45 18.23 212.71 0 245.74 77.8 163.65 240.27 85.03 315.88 68.99c-177.86 60.66-240 133.13-240 133.13l-.59 237.18h31.54c29.33-148.94 131.93-257.61 279.89-318.1-9.31-4.95-26.68-5.2-53-2.12 68-7.94 73.72-23.34 27-72.63 46.68 49.29 62.3 44.17 73.62-24.13-11.32 68.3 2.43 77.32 64.8 42.51-22.95 12.82-37.23 23.14-42.73 32.36z" fill="#ed1c24"></path></svg></svg> <!----></g></g> <g transform="translate(67,12.368290424346924)"><g data-gra="path-name" fill-rule="" class="tp-name iconsvg-namesvg"><g transform="scale(1)"><g><path d="M13.57-14.97L13.57-14.97Q13.49-13.89 13.46-12.9 13.42-11.9 13.42-11.37L13.42-11.37Q13.42-10.91 13.45-10.49 13.47-10.06 13.49-9.77L13.49-9.77 13-9.77Q12.66-11.54 12.15-12.58 11.63-13.62 10.91-14.05 10.19-14.48 9.22-14.48L9.22-14.48 8.73-14.48 8.73-2.41Q8.73-1.56 8.91-1.14 9.09-0.72 9.58-0.58 10.06-0.44 10.99-0.42L10.99-0.42 10.99 0Q10.34-0.02 9.25-0.04 8.16-0.06 6.98-0.06L6.98-0.06Q5.81-0.06 4.78-0.04 3.74-0.02 3.11 0L3.11 0 3.11-0.42Q4.06-0.44 4.55-0.58 5.03-0.72 5.2-1.14 5.37-1.56 5.37-2.41L5.37-2.41 5.37-14.48 4.9-14.48Q3.93-14.48 3.21-14.05 2.49-13.62 1.99-12.59 1.48-11.56 1.1-9.77L1.1-9.77 0.61-9.77Q0.66-10.06 0.67-10.49 0.68-10.91 0.68-11.37L0.68-11.37Q0.68-11.9 0.64-12.9 0.61-13.89 0.53-14.97L0.53-14.97Q1.5-14.95 2.65-14.93 3.81-14.9 4.97-14.9 6.13-14.9 7.06-14.9L7.06-14.9Q8.01-14.9 9.16-14.9 10.32-14.9 11.48-14.93 12.64-14.95 13.57-14.97ZM14.84-14.55L14.84-14.97Q15.37-14.95 16.27-14.93 17.17-14.9 18.05-14.9L18.05-14.9Q19.07-14.9 20.02-14.93 20.97-14.95 21.37-14.95L21.37-14.95Q24.31-14.95 25.77-13.99 27.23-13.02 27.23-11.27L27.23-11.27Q27.23-10.55 26.93-9.82 26.64-9.09 25.93-8.47 25.22-7.84 24-7.47 22.77-7.1 20.91-7.1L20.91-7.1 18.88-7.1 18.88-7.53 20.7-7.53Q21.95-7.53 22.59-8 23.23-8.48 23.48-9.27 23.72-10.06 23.72-11.04L23.72-11.04Q23.72-12.71 23.13-13.63 22.54-14.55 21.1-14.55L21.1-14.55Q20.27-14.55 20.03-14.19 19.79-13.83 19.79-12.73L19.79-12.73 19.79-2.24Q19.79-1.48 19.9-1.1 20.02-0.72 20.36-0.59 20.7-0.47 21.37-0.42L21.37-0.42 21.37 0Q20.8-0.04 19.94-0.05 19.07-0.06 18.18-0.06L18.18-0.06Q17.17-0.06 16.27-0.05 15.37-0.04 14.84 0L14.84 0 14.84-0.42Q15.52-0.47 15.86-0.59 16.19-0.72 16.31-1.1 16.43-1.48 16.43-2.24L16.43-2.24 16.43-12.73Q16.43-13.51 16.31-13.88 16.19-14.25 15.85-14.39 15.5-14.52 14.84-14.55L14.84-14.55ZM18.88-7.1L18.84-7.46Q19.75-7.44 20.41-7.38 21.08-7.32 21.59-7.26 22.09-7.21 22.49-7.19L22.49-7.19Q24.42-7.02 25.34-6.36 26.26-5.71 26.53-4.4L26.53-4.4 27.02-2.22Q27.21-1.37 27.42-1.04 27.63-0.7 28.03-0.7L28.03-0.7Q28.31-0.72 28.49-0.84 28.67-0.95 28.88-1.18L28.88-1.18 29.18-0.93Q28.6-0.27 27.95 0.01 27.29 0.3 26.36 0.3L26.36 0.3Q25.22 0.3 24.48-0.19 23.74-0.68 23.51-1.99L23.51-1.99 23.13-4.1Q22.98-4.99 22.77-5.66 22.56-6.32 22.19-6.71 21.82-7.1 21.16-7.1L21.16-7.1 18.88-7.1ZM36.53-15.01L36.53-15.01 41.67-1.78Q41.97-1.01 42.34-0.73 42.71-0.44 43-0.42L43-0.42 43 0Q42.37-0.04 41.51-0.05 40.66-0.06 39.79-0.06L39.79-0.06Q38.82-0.06 37.95-0.05 37.08-0.04 36.58 0L36.58 0 36.58-0.42Q37.65-0.47 37.94-0.79 38.22-1.12 37.8-2.2L37.8-2.2 34.21-12.03 34.59-12.58 31.37-4.21Q30.78-2.64 30.79-1.84 30.8-1.04 31.31-0.75 31.82-0.47 32.66-0.42L32.66-0.42 32.66 0Q31.97-0.04 31.33-0.05 30.7-0.06 30.04-0.06L30.04-0.06Q29.58-0.06 29.16-0.05 28.75-0.04 28.44 0L28.44 0 28.44-0.42Q28.88-0.51 29.34-0.99 29.81-1.48 30.25-2.64L30.25-2.64 35.07-15.01Q35.41-14.99 35.8-14.99 36.19-14.99 36.53-15.01ZM31.92-6.09L38.01-6.09 38.01-5.67 31.71-5.67 31.92-6.09ZM57.08-14.97L57.08-14.97 57.08-14.55Q56.41-14.46 56.07-14.2 55.73-13.93 55.61-13.36 55.5-12.79 55.5-11.75L55.5-11.75 55.5 0.04Q55.24 0.02 54.98 0.02 54.71 0.02 54.42 0.04L54.42 0.04 45.24-11.59 45.24-3.47Q45.24-2.3 45.37-1.68 45.5-1.06 45.93-0.79 46.36-0.53 47.29-0.42L47.29-0.42 47.29 0Q46.89-0.04 46.24-0.05 45.58-0.06 45.01-0.06L45.01-0.06Q44.52-0.06 44.02-0.05 43.51-0.04 43.17 0L43.17 0 43.17-0.42Q43.85-0.53 44.19-0.78 44.52-1.04 44.64-1.62 44.76-2.2 44.76-3.21L44.76-3.21 44.76-12.73Q44.76-13.51 44.64-13.88 44.52-14.25 44.18-14.39 43.83-14.52 43.17-14.55L43.17-14.55 43.17-14.97Q43.51-14.95 44.02-14.93 44.52-14.9 45.01-14.9L45.01-14.9Q45.52-14.9 45.98-14.93 46.45-14.95 46.83-14.97L46.83-14.97 55.01-4.88 55.01-11.5Q55.01-12.66 54.88-13.29 54.76-13.91 54.32-14.19 53.89-14.46 52.96-14.55L52.96-14.55 52.96-14.97Q53.36-14.95 54.02-14.93 54.67-14.9 55.24-14.9L55.24-14.9Q55.75-14.9 56.25-14.93 56.74-14.95 57.08-14.97ZM63.7-15.24L63.7-15.24Q64.95-15.24 65.62-14.98 66.3-14.71 66.79-14.42L66.79-14.42Q67.04-14.27 67.2-14.2 67.36-14.12 67.51-14.12L67.51-14.12Q67.84-14.12 67.97-15.05L67.97-15.05 68.46-15.05Q68.44-14.65 68.4-14.09 68.37-13.53 68.36-12.62 68.35-11.71 68.35-10.23L68.35-10.23 67.86-10.23Q67.78-11.33 67.36-12.37 66.93-13.4 66.16-14.07 65.39-14.74 64.27-14.74L64.27-14.74Q63.26-14.74 62.6-14.16 61.95-13.59 61.95-12.58L61.95-12.58Q61.95-11.73 62.37-11.13 62.79-10.53 63.6-9.96 64.42-9.39 65.58-8.58L65.58-8.58Q66.6-7.93 67.4-7.27 68.2-6.62 68.69-5.79 69.18-4.97 69.18-3.83L69.18-3.83Q69.18-2.43 68.45-1.52 67.72-0.61 66.53-0.16 65.35 0.3 63.93 0.3L63.93 0.3Q62.62 0.3 61.84 0.04 61.06-0.21 60.53-0.49L60.53-0.49Q60.06-0.78 59.81-0.78L59.81-0.78Q59.47-0.78 59.34 0.15L59.34 0.15 58.86 0.15Q58.9-0.36 58.91-1.04 58.92-1.71 58.93-2.8 58.94-3.89 58.94-5.56L58.94-5.56 59.43-5.56Q59.51-4.16 59.9-2.95 60.3-1.73 61.11-0.99 61.92-0.25 63.28-0.25L63.28-0.25Q64.38-0.25 65.14-0.85 65.9-1.44 65.9-2.62L65.9-2.62Q65.9-3.93 65.01-4.79 64.12-5.64 62.73-6.55L62.73-6.55Q61.73-7.21 60.87-7.86 60-8.52 59.48-9.37 58.96-10.21 58.96-11.37L58.96-11.37Q58.96-12.71 59.63-13.56 60.3-14.42 61.38-14.83 62.47-15.24 63.7-15.24ZM82.07-14.97L82.07-14.97Q81.99-14.02 81.96-13.13 81.92-12.24 81.92-11.75L81.92-11.75Q81.92-11.29 81.95-10.87 81.97-10.44 81.99-10.15L81.99-10.15 81.5-10.15Q81.23-11.8 80.74-12.74 80.25-13.68 79.55-14.08 78.84-14.48 77.86-14.48L77.86-14.48 77.17-14.48Q76.55-14.48 76.24-14.38 75.92-14.27 75.81-13.95 75.71-13.64 75.71-12.98L75.71-12.98 75.71-2.37Q75.71-1.54 75.88-1.14 76.05-0.74 76.53-0.61 77.02-0.49 77.97-0.47L77.97-0.47 77.97 0Q77.32-0.02 76.28-0.04 75.24-0.06 74.1-0.06L74.1-0.06Q73.19-0.06 72.33-0.04 71.46-0.02 70.76 0L70.76 0 70.76-0.42Q71.44-0.47 71.78-0.59 72.11-0.72 72.23-1.1 72.35-1.48 72.35-2.24L72.35-2.24 72.35-12.73Q72.35-13.51 72.23-13.88 72.11-14.25 71.77-14.39 71.42-14.52 70.76-14.55L70.76-14.55 70.76-14.97Q71.9-14.95 73.23-14.93 74.57-14.9 75.75-14.9 76.93-14.9 77.65-14.9L77.65-14.9Q78.63-14.9 79.86-14.92 81.1-14.93 82.07-14.97ZM75.07-7.65L78.92-7.65Q78.92-7.65 78.92-7.44 78.92-7.23 78.92-7.23L78.92-7.23 75.07-7.23Q75.07-7.23 75.07-7.44 75.07-7.65 75.07-7.65L75.07-7.65ZM78.96-10.44L79.45-10.44Q79.37-9.24 79.38-8.6 79.39-7.97 79.39-7.44L79.39-7.44Q79.39-6.91 79.41-6.28 79.43-5.64 79.51-4.44L79.51-4.44 79.03-4.44Q78.9-5.18 78.63-5.81 78.35-6.45 77.82-6.84 77.29-7.23 76.45-7.23L76.45-7.23 76.45-7.65Q77.29-7.65 77.8-8.12 78.31-8.58 78.57-9.23 78.84-9.87 78.96-10.44L78.96-10.44ZM90.8-15.26L90.8-15.26Q93.04-15.26 94.73-14.36 96.41-13.45 97.34-11.74 98.27-10.04 98.27-7.61L98.27-7.61Q98.27-5.24 97.32-3.47 96.36-1.69 94.66-0.7 92.96 0.3 90.78 0.3L90.78 0.3Q88.54 0.3 86.86-0.61 85.18-1.52 84.25-3.23 83.32-4.95 83.32-7.36L83.32-7.36Q83.32-9.73 84.28-11.5 85.24-13.28 86.92-14.27 88.6-15.26 90.8-15.26ZM90.72-14.88L90.72-14.88Q89.53-14.88 88.66-13.93 87.78-12.98 87.3-11.31 86.83-9.64 86.83-7.44L86.83-7.44Q86.83-5.2 87.37-3.54 87.91-1.88 88.83-0.98 89.75-0.08 90.87-0.08L90.87-0.08Q92.05-0.08 92.93-1.04 93.81-1.99 94.28-3.67 94.76-5.35 94.76-7.53L94.76-7.53Q94.76-9.79 94.22-11.44 93.68-13.09 92.76-13.99 91.84-14.88 90.72-14.88ZM99.73-14.55L99.73-14.97Q100.25-14.95 101.15-14.93 102.05-14.9 102.94-14.9L102.94-14.9Q103.95-14.9 104.9-14.93 105.86-14.95 106.26-14.95L106.26-14.95Q109.2-14.95 110.66-13.99 112.11-13.02 112.11-11.27L112.11-11.27Q112.11-10.55 111.82-9.82 111.52-9.09 110.81-8.47 110.11-7.84 108.88-7.47 107.65-7.1 105.79-7.1L105.79-7.1 103.76-7.1 103.76-7.53 105.58-7.53Q106.83-7.53 107.47-8 108.12-8.48 108.36-9.27 108.6-10.06 108.6-11.04L108.6-11.04Q108.6-12.71 108.01-13.63 107.42-14.55 105.98-14.55L105.98-14.55Q105.16-14.55 104.92-14.19 104.67-13.83 104.67-12.73L104.67-12.73 104.67-2.24Q104.67-1.48 104.79-1.1 104.9-0.72 105.24-0.59 105.58-0.47 106.26-0.42L106.26-0.42 106.26 0Q105.69-0.04 104.82-0.05 103.95-0.06 103.07-0.06L103.07-0.06Q102.05-0.06 101.15-0.05 100.25-0.04 99.73 0L99.73 0 99.73-0.42Q100.4-0.47 100.74-0.59 101.08-0.72 101.19-1.1 101.31-1.48 101.31-2.24L101.31-2.24 101.31-12.73Q101.31-13.51 101.19-13.88 101.08-14.25 100.73-14.39 100.38-14.52 99.73-14.55L99.73-14.55ZM103.76-7.1L103.72-7.46Q104.63-7.44 105.3-7.38 105.96-7.32 106.47-7.26 106.98-7.21 107.38-7.19L107.38-7.19Q109.3-7.02 110.22-6.36 111.14-5.71 111.42-4.4L111.42-4.4 111.9-2.22Q112.09-1.37 112.3-1.04 112.52-0.7 112.92-0.7L112.92-0.7Q113.19-0.72 113.37-0.84 113.55-0.95 113.76-1.18L113.76-1.18 114.06-0.93Q113.49-0.27 112.83 0.01 112.18 0.3 111.25 0.3L111.25 0.3Q110.11 0.3 109.37-0.19 108.63-0.68 108.39-1.99L108.39-1.99 108.01-4.1Q107.86-4.99 107.65-5.66 107.44-6.32 107.07-6.71 106.7-7.1 106.05-7.1L106.05-7.1 103.76-7.1ZM132.54-14.97L132.54-14.97 132.54-14.55Q131.86-14.52 131.52-14.39 131.18-14.25 131.07-13.88 130.95-13.51 130.95-12.73L130.95-12.73 130.95-2.24Q130.95-1.48 131.07-1.1 131.18-0.72 131.52-0.59 131.86-0.47 132.54-0.42L132.54-0.42 132.54 0Q131.95-0.04 131.05-0.05 130.15-0.06 129.22-0.06L129.22-0.06Q128.2-0.06 127.32-0.05 126.43-0.04 125.88 0L125.88 0 125.88-0.42Q126.6-0.47 126.97-0.59 127.34-0.72 127.46-1.1 127.59-1.48 127.59-2.24L127.59-2.24 127.59-13.68 127.74-13.68 122.49 0.02 122.16 0.02 116.45-13.59 116.45-3.47Q116.45-2.3 116.58-1.68 116.7-1.06 117.14-0.79 117.57-0.53 118.5-0.42L118.5-0.42 118.5 0Q118.1-0.04 117.44-0.05 116.79-0.06 116.22-0.06L116.22-0.06Q115.73-0.06 115.22-0.05 114.71-0.04 114.38 0L114.38 0 114.38-0.42Q115.05-0.53 115.39-0.78 115.73-1.04 115.85-1.62 115.96-2.2 115.96-3.21L115.96-3.21 115.96-12.73Q115.96-13.51 115.85-13.88 115.73-14.25 115.38-14.39 115.03-14.52 114.38-14.55L114.38-14.55 114.38-14.97Q114.71-14.95 115.22-14.93 115.73-14.9 116.22-14.9L116.22-14.9Q117.12-14.9 118-14.93 118.88-14.95 119.56-14.97L119.56-14.97 124-4.25 123.47-3.76 127.72-14.9Q128.08-14.9 128.46-14.9 128.84-14.9 129.22-14.9L129.22-14.9Q130.15-14.9 131.05-14.93 131.95-14.95 132.54-14.97ZM140.49-14.97L140.49-14.97 140.49-14.55Q139.81-14.52 139.46-14.39 139.11-14.25 139.01-13.88 138.9-13.51 138.9-12.73L138.9-12.73 138.9-2.24Q138.9-1.48 139.02-1.1 139.13-0.72 139.47-0.59 139.81-0.47 140.49-0.42L140.49-0.42 140.49 0Q139.92-0.04 139.05-0.05 138.18-0.06 137.29-0.06L137.29-0.06Q136.26-0.06 135.38-0.05 134.5-0.04 133.95 0L133.95 0 133.95-0.42Q134.63-0.47 134.97-0.59 135.31-0.72 135.42-1.1 135.54-1.48 135.54-2.24L135.54-2.24 135.54-12.73Q135.54-13.51 135.42-13.88 135.31-14.25 134.96-14.39 134.61-14.52 133.95-14.55L133.95-14.55 133.95-14.97Q134.5-14.95 135.38-14.93 136.26-14.9 137.29-14.9L137.29-14.9Q138.18-14.9 139.05-14.93 139.92-14.95 140.49-14.97ZM147.19-15.24L147.19-15.24Q148.44-15.24 149.11-14.98 149.79-14.71 150.27-14.42L150.27-14.42Q150.53-14.27 150.69-14.2 150.85-14.12 150.99-14.12L150.99-14.12Q151.33-14.12 151.46-15.05L151.46-15.05 151.95-15.05Q151.92-14.65 151.89-14.09 151.86-13.53 151.85-12.62 151.84-11.71 151.84-10.23L151.84-10.23 151.35-10.23Q151.27-11.33 150.85-12.37 150.42-13.4 149.65-14.07 148.88-14.74 147.76-14.74L147.76-14.74Q146.74-14.74 146.09-14.16 145.43-13.59 145.43-12.58L145.43-12.58Q145.43-11.73 145.86-11.13 146.28-10.53 147.09-9.96 147.91-9.39 149.07-8.58L149.07-8.58Q150.08-7.93 150.89-7.27 151.69-6.62 152.18-5.79 152.66-4.97 152.66-3.83L152.66-3.83Q152.66-2.43 151.93-1.52 151.21-0.61 150.02-0.16 148.84 0.3 147.42 0.3L147.42 0.3Q146.11 0.3 145.33 0.04 144.55-0.21 144.02-0.49L144.02-0.49Q143.55-0.78 143.3-0.78L143.3-0.78Q142.96-0.78 142.83 0.15L142.83 0.15 142.35 0.15Q142.39-0.36 142.4-1.04 142.41-1.71 142.42-2.8 142.43-3.89 142.43-5.56L142.43-5.56 142.92-5.56Q143-4.16 143.39-2.95 143.78-1.73 144.6-0.99 145.41-0.25 146.77-0.25L146.77-0.25Q147.86-0.25 148.63-0.85 149.39-1.44 149.39-2.62L149.39-2.62Q149.39-3.93 148.5-4.79 147.61-5.64 146.22-6.55L146.22-6.55Q145.22-7.21 144.36-7.86 143.49-8.52 142.97-9.37 142.45-10.21 142.45-11.37L142.45-11.37Q142.45-12.71 143.12-13.56 143.78-14.42 144.87-14.83 145.96-15.24 147.19-15.24ZM167.1-14.97L167.1-14.97Q167.02-13.89 166.99-12.9 166.96-11.9 166.96-11.37L166.96-11.37Q166.96-10.91 166.98-10.49 167-10.06 167.02-9.77L167.02-9.77 166.53-9.77Q166.19-11.54 165.68-12.58 165.16-13.62 164.44-14.05 163.72-14.48 162.75-14.48L162.75-14.48 162.26-14.48 162.26-2.41Q162.26-1.56 162.44-1.14 162.62-0.72 163.11-0.58 163.59-0.44 164.52-0.42L164.52-0.42 164.52 0Q163.87-0.02 162.78-0.04 161.69-0.06 160.51-0.06L160.51-0.06Q159.34-0.06 158.31-0.04 157.27-0.02 156.64 0L156.64 0 156.64-0.42Q157.59-0.44 158.08-0.58 158.56-0.72 158.73-1.14 158.9-1.56 158.9-2.41L158.9-2.41 158.9-14.48 158.44-14.48Q157.46-14.48 156.74-14.05 156.03-13.62 155.52-12.59 155.01-11.56 154.63-9.77L154.63-9.77 154.14-9.77Q154.19-10.06 154.2-10.49 154.21-10.91 154.21-11.37L154.21-11.37Q154.21-11.9 154.18-12.9 154.14-13.89 154.06-14.97L154.06-14.97Q155.03-14.95 156.18-14.93 157.34-14.9 158.5-14.9 159.66-14.9 160.59-14.9L160.59-14.9Q161.54-14.9 162.7-14.9 163.85-14.9 165.01-14.93 166.17-14.95 167.1-14.97ZM173.66-15.24L173.66-15.24Q174.9-15.24 175.58-14.98 176.26-14.71 176.74-14.42L176.74-14.42Q177-14.27 177.16-14.2 177.32-14.12 177.46-14.12L177.46-14.12Q177.8-14.12 177.93-15.05L177.93-15.05 178.41-15.05Q178.39-14.65 178.36-14.09 178.33-13.53 178.32-12.62 178.31-11.71 178.31-10.23L178.31-10.23 177.82-10.23Q177.74-11.33 177.32-12.37 176.89-13.4 176.12-14.07 175.35-14.74 174.23-14.74L174.23-14.74Q173.21-14.74 172.56-14.16 171.9-13.59 171.9-12.58L171.9-12.58Q171.9-11.73 172.33-11.13 172.75-10.53 173.56-9.96 174.38-9.39 175.54-8.58L175.54-8.58Q176.55-7.93 177.36-7.27 178.16-6.62 178.65-5.79 179.13-4.97 179.13-3.83L179.13-3.83Q179.13-2.43 178.4-1.52 177.67-0.61 176.49-0.16 175.31 0.3 173.89 0.3L173.89 0.3Q172.58 0.3 171.8 0.04 171.01-0.21 170.49-0.49L170.49-0.49Q170.02-0.78 169.77-0.78L169.77-0.78Q169.43-0.78 169.3 0.15L169.3 0.15 168.82 0.15Q168.86-0.36 168.87-1.04 168.88-1.71 168.89-2.8 168.9-3.89 168.9-5.56L168.9-5.56 169.39-5.56Q169.47-4.16 169.86-2.95 170.25-1.73 171.07-0.99 171.88-0.25 173.23-0.25L173.23-0.25Q174.33-0.25 175.1-0.85 175.86-1.44 175.86-2.62L175.86-2.62Q175.86-3.93 174.97-4.79 174.08-5.64 172.68-6.55L172.68-6.55Q171.69-7.21 170.82-7.86 169.96-8.52 169.44-9.37 168.92-10.21 168.92-11.37L168.92-11.37Q168.92-12.71 169.59-13.56 170.25-14.42 171.34-14.83 172.43-15.24 173.66-15.24Z" transform="translate(-0.5299999713897705, 15.260000228881836)"></path></g> <!----> <!----> <!----> <!----> <!----> <!----> <!----></g></g> <!----></g></g><defs v-gra="od"></defs></svg>